<svg width="60" height="61" viewBox="0 0 60 61" fill="none" xmlns="http://www.w3.org/2000/svg">
<g clip-path="url(#clip0_1_162)">
<path d="M27 59.9763C27.3 59.9763 27.54 60.0363 27.84 60.0363H32.16C44.34 60.0363 54.18 50.1963 54.18 38.0163V33.6963C54.18 21.5163 44.34 11.6763 32.16 11.6763H27.84C27.54 11.6763 27.3 11.7363 27 11.7363V59.9763Z" fill="#FFAE2B"/>
<path d="M33.96 52.2363H29.82C16.62 52.2363 5.88 41.4963 5.88 28.2963V24.1562C5.88 10.8962 16.62 0.15625 29.82 0.15625H33.96C34.2 0.15625 34.38 0.15625 34.62 0.15625L37.44 0.27625V52.0563L34.62 52.1763C34.44 52.2363 34.2 52.2363 33.96 52.2363ZM29.82 5.55625C19.56 5.55625 11.22 13.8963 11.22 24.1562V28.2963C11.22 38.5563 19.56 46.8963 29.82 46.8963H32.1V5.55625H29.82Z" fill="#54493E"/>
</g>
<defs>
<clipPath id="clip0_1_162">
<rect width="60" height="60" fill="white" transform="translate(0 0.15625)"/>
</clipPath>
</defs>
</svg>
