<svg width="60" height="61" viewBox="0 0 60 61" fill="none" xmlns="http://www.w3.org/2000/svg">
<g clip-path="url(#clip0_1_150)">
<path d="M29.82 60.2162L51.72 41.4962L43.38 27.6362H16.26L7.85999 41.4962L29.82 60.2162Z" fill="#54493E"/>
<path d="M29.4 42.9363C17.58 42.9363 8.03998 33.3363 8.03998 21.5763C8.03998 9.81625 17.64 0.15625 29.4 0.15625C41.16 0.15625 50.76 9.75625 50.76 21.5163C50.76 33.2762 41.22 42.9363 29.4 42.9363ZM29.4 5.13625C20.34 5.13625 12.96 12.5163 12.96 21.5763C12.96 30.6363 20.34 37.9563 29.4 37.9563C38.46 37.9563 45.84 30.5763 45.84 21.5163C45.84 12.4562 38.46 5.13625 29.4 5.13625Z" fill="#FFAE2B"/>
</g>
<defs>
<clipPath id="clip0_1_150">
<rect width="60" height="60" fill="white" transform="translate(0 0.15625)"/>
</clipPath>
</defs>
</svg>
